<?xml version="1.0" encoding="utf-8"?>
<!-- Generator: Adobe Illustrator 23.0.2, SVG Export Plug-In . SVG Version: 6.00 Build 0)  -->
<svg version="1.1" xmlns="http://www.w3.org/2000/svg" xmlns:xlink="http://www.w3.org/1999/xlink" x="0px" y="0px"
	 viewBox="0 0 663.31 518.74" style="enable-background:new 0 0 663.31 518.74;" xml:space="preserve">
<style type="text/css">
	.st0{fill:#FFFFFF;}
	.st1{display:none;}
	.st2{display:inline;}
	.st3{fill:#1D1D1B;}
	.st4{display:inline;fill:none;stroke:#FFFFFF;stroke-width:7;stroke-miterlimit:10;}
	.st5{fill:none;stroke:#FFFFFF;stroke-width:2;stroke-miterlimit:10;}
	.st6{display:inline;fill:none;stroke:#FFFFFF;stroke-width:2;stroke-miterlimit:10;}
	.st7{display:inline;fill:#FFFFFF;stroke:#FFFFFF;stroke-width:2;stroke-miterlimit:10;}
	.st8{display:inline;stroke:#000000;stroke-width:2;stroke-miterlimit:10;}
	.st9{display:inline;fill:none;stroke:#000000;stroke-width:2;stroke-miterlimit:10;}
	.st10{fill:none;stroke:#000000;stroke-width:2;stroke-miterlimit:10;}
</style>
<g id="Layer_1">
	<path class="st0" d="M166.95,257.29c-6.75,0-12.25,5.49-12.25,12.25s5.5,12.25,12.25,12.25s12.25-5.5,12.25-12.25
		S173.7,257.29,166.95,257.29z"/>
	<path class="st0" d="M286.17,268.54c-0.27,48.59-30.89,93.7-76.86,110.44c-13.15,4.79-26.85,7.17-40.83,7.25
		c-9.26,0.05-9.28,14.45,0,14.4c54.9-0.3,104.52-34.79,123.86-86.18c5.51-14.63,8.14-30.29,8.23-45.91
		C300.62,259.28,286.22,259.26,286.17,268.54L286.17,268.54z"/>
	<circle class="st0" cx="163.99" cy="392.24" r="14.5"/>
	<path class="st0" d="M174.38,135.28c-3.46,0-6.46,2-7.93,4.9c-67.14,1.05-121.93,53.88-126.1,120.23
		c-2.54,1.71-4.22,4.62-4.22,7.91c0,5.25,4.28,9.53,9.53,9.53s9.53-4.28,9.53-9.53c0-4.64-3.34-8.51-7.73-9.36
		c4.84-61.67,55.97-110.54,118.57-111.78c1.24,3.41,4.51,5.86,8.34,5.86c4.9,0,8.88-3.98,8.88-8.88S179.28,135.28,174.38,135.28z"/>
	<path class="st0" d="M236.36,175.03c19.51,14.38,34.02,34.8,41.45,57.83c3.07,9.52,18.14,5.45,15.04-4.15
		c-8.76-27.17-25.67-50.24-48.62-67.15c-3.42-2.52-8.67-0.54-10.67,2.8C231.21,168.29,232.99,172.54,236.36,175.03L236.36,175.03z"
		/>
	<path id="XMLID_17_" class="st0" d="M167.95,329.41"/>
	<path class="st0" d="M139.13,179.1l-0.95,0.32c-8.96,3.01-17.4,7.37-25.09,12.96c-2.94,2.14-5.75,4.45-8.42,6.9
		c-4.44,4.1-8.47,8.61-12.06,13.51l-0.59,0.81l26.46,19.35l0.59-0.81c3.72-5.08,8.19-9.54,13.29-13.25
		c4.97-3.62,10.45-6.45,16.28-8.4l0.95-0.32L139.13,179.1z"/>
	<path class="st0" d="M259.95,252.3c-0.65-3.86-1.56-7.7-2.69-11.45l0.02-0.01l-0.3-0.95l-0.3-0.96l-0.02,0.01
		c-6.04-18.53-18.02-35.04-33.86-46.56l-0.81-0.59l-19.27,26.52l0.81,0.59c10.52,7.65,18.42,18.66,22.24,31.01
		c1.8,5.8,2.71,11.84,2.71,17.97c0,0.15-0.01,0.3-0.01,0.45l-0.01,0.4c-0.08,6.11-1.07,12.12-2.93,17.86l-0.31,0.95l31.18,10.13
		l0.31-0.95c2.88-8.89,4.4-18.18,4.53-27.61l0.01-0.41c0-0.27,0.01-0.54,0.01-0.81C261.25,262.65,260.81,257.41,259.95,252.3z"/>
	<path id="XMLID_23_" class="st0" d="M226.48,286.9"/>
	<path class="st0" d="M113.37,341.1c-15.18-11.33-26.32-26.79-32.19-44.72l-0.31-0.94l-0.95,0.3l0,0l-29.3,9.42l0,0l-0.96,0.31
		l0.31,0.95c7.95,24.39,23.05,45.44,43.67,60.87l0.8,0.6l19.73-26.17L113.37,341.1z"/>
</g>
<g id="Layer_3" class="st1">
	<g id="XMLID_954_" class="st2">
		<circle id="XMLID_979_" class="st0" cx="495.25" cy="266.83" r="11.25"/>
		<circle id="XMLID_977_" class="st3" cx="495.25" cy="266.83" r="11.25"/>
		<circle id="XMLID_971_" class="st0" cx="495.25" cy="266.83" r="11.25"/>
	</g>
	<path id="XMLID_953_" class="st4" d="M371.9,265.83c0-68.97,55.92-124.89,124.89-124.89"/>
	<g id="XMLID_952_" class="st2">
		<g id="XMLID_972_">
			<path id="XMLID_976_" class="st0" d="M614.48,265.83c-0.27,48.59-30.89,93.7-76.86,110.44c-13.15,4.79-26.85,7.17-40.83,7.25
				c-9.26,0.05-9.28,14.45,0,14.4c54.9-0.3,104.52-34.79,123.86-86.18c5.51-14.63,8.14-30.29,8.23-45.91
				C628.93,256.57,614.53,256.56,614.48,265.83L614.48,265.83z"/>
		</g>
	</g>
	<g id="XMLID_946_" class="st2">
		<circle id="XMLID_969_" class="st0" cx="502.69" cy="141.45" r="7.88"/>
		<circle id="XMLID_968_" class="st5" cx="502.69" cy="141.45" r="7.88"/>
		<circle id="XMLID_967_" class="st0" cx="502.69" cy="141.45" r="7.88"/>
		<circle id="XMLID_966_" class="st0" cx="502.69" cy="141.45" r="7.88"/>
	</g>
	<g id="XMLID_942_" class="st2">
		<circle id="XMLID_963_" class="st5" cx="492.29" cy="389.53" r="13.5"/>
		<circle id="XMLID_962_" class="st0" cx="492.29" cy="389.53" r="13.5"/>
	</g>
	<g id="XMLID_936_" class="st2">
		<circle id="XMLID_961_" class="st0" cx="371.98" cy="265.61" r="8.53"/>
		<circle id="XMLID_960_" class="st5" cx="371.98" cy="265.61" r="8.53"/>
		<circle id="XMLID_959_" class="st0" cx="371.98" cy="265.61" r="8.53"/>
		<circle id="XMLID_958_" class="st0" cx="371.98" cy="265.61" r="8.53"/>
	</g>
	<g id="XMLID_935_" class="st2">
		<g id="XMLID_950_">
			<path id="XMLID_957_" class="st0" d="M564.67,172.32c19.51,14.38,34.02,34.8,41.45,57.83c3.07,9.52,18.14,5.45,15.04-4.15
				c-8.76-27.17-25.67-50.24-48.62-67.15c-3.42-2.52-8.67-0.54-10.67,2.8C559.51,165.58,561.29,169.83,564.67,172.32L564.67,172.32z
				"/>
		</g>
	</g>
	<path id="XMLID_934_" class="st6" d="M421.73,210.68c5.66-7.74,12.5-14.55,20.26-20.2"/>
	<g id="XMLID_930_" class="st2">
		<path id="XMLID_947_" class="st5" d="M408.53,293.98l-29.3,9.42c7.94,24.35,23.25,45.36,43.32,60.37l18.53-24.58
			C426.02,327.96,414.51,312.23,408.53,293.98z"/>
		<path id="XMLID_944_" class="st0" d="M408.53,293.98l-29.3,9.42c7.94,24.35,23.25,45.36,43.32,60.37l18.53-24.58
			C426.02,327.96,414.51,312.23,408.53,293.98z"/>
	</g>
	<path id="XMLID_929_" class="st6" d="M496.25,326.7"/>
	<path id="XMLID_83_" class="st7" d="M460.08,215.38c-5.17,3.76-9.73,8.3-13.51,13.46l-24.84-18.17c5.66-7.74,12.5-14.55,20.26-20.2
		c7.5-5.45,15.85-9.81,24.82-12.82l9.83,29.18C470.65,208.85,465.08,211.75,460.08,215.38z"/>
	<g id="XMLID_45_" class="st2">
		<path id="XMLID_941_" class="st5" d="M550.52,190.48l-18.09,24.9c10.6,7.71,18.64,18.71,22.61,31.52l29.3-9.42
			C578.35,218.39,566.33,201.99,550.52,190.48z"/>
		<path id="XMLID_940_" class="st0" d="M550.52,190.48l-18.09,24.9c10.6,7.71,18.64,18.71,22.61,31.52l29.3-9.42
			C578.35,218.39,566.33,201.99,550.52,190.48z"/>
	</g>
	<g id="XMLID_21_" class="st2">
		<path id="XMLID_938_" class="st5" d="M588.54,266.38c-0.12,9.53-1.68,18.7-4.48,27.32l-29.28-9.51c1.86-5.73,2.9-11.83,2.98-18.16
			c0-0.29,0.02-0.57,0.02-0.86c0-6.36-0.96-12.5-2.75-18.27l29.3-9.42c1.25,3.98,2.23,8.08,2.94,12.27
			c0.84,5.01,1.28,10.16,1.28,15.41C588.55,265.58,588.54,265.98,588.54,266.38z"/>
		<path id="XMLID_937_" class="st0" d="M588.54,266.38c-0.12,9.53-1.68,18.7-4.48,27.32l-29.28-9.51c1.86-5.73,2.9-11.83,2.98-18.16
			c0-0.29,0.02-0.57,0.02-0.86c0-6.36-0.96-12.5-2.75-18.27l29.3-9.42c1.25,3.98,2.23,8.08,2.94,12.27
			c0.84,5.01,1.28,10.16,1.28,15.41C588.55,265.58,588.54,265.98,588.54,266.38z"/>
	</g>
	<path id="XMLID_19_" class="st6" d="M554.78,284.19"/>
	<polygon id="XMLID_1_" class="st6" points="408.53,293.98 379.23,303.4 379.23,303.4 408.53,293.98 	"/>
</g>
<g id="Layer_2" class="st1">
	<path id="XMLID_38_" class="st8" d="M161.87,120.96l-37.35-27.32c-18.18,24.83-32.34,52.8-41.5,82.96l44.24,13.61
		C134.88,165.03,146.69,141.69,161.87,120.96z"/>
	<path id="XMLID_7_" class="st8" d="M351.14,26.24c-0.83-0.01-1.66-0.03-2.49-0.03c-25.82,0-50.64,4.22-73.82,12.01L260.06-5.65
		c27.82-9.34,57.61-14.41,88.59-14.41c0.98,0,1.95,0.01,2.93,0.02c31.4,0.32,61.54,5.86,89.61,15.76l-15.33,43.68
		C402.45,31.13,377.32,26.51,351.14,26.24z"/>
	<polygon id="XMLID_332_" class="st9" points="481.12,215.93 481.12,215.93 525.18,201.77 525.18,201.77 	"/>
	<polygon id="XMLID_334_" class="st9" points="437.05,230.09 481.12,215.93 481.12,215.93 437.05,230.09 	"/>
	<polygon id="XMLID_337_" class="st9" points="392.97,244.25 437.05,230.09 437.05,230.09 392.97,244.25 	"/>
	<path id="XMLID_25_" class="st9" d="M293.54,331.92l-27.86,36.96c11.3,8.43,23.93,15.17,37.52,19.87"/>
	<path id="XMLID_37_" class="st9" d="M437.31,520.75c26.93-9.05,52-22.13,74.51-38.5l-27.23-37.42
		c-18.75,13.63-39.63,24.52-62.06,32.06"/>
	<path id="XMLID_44_" class="st9" d="M484.59,444.82l27.23,37.42c23.33-16.96,43.91-37.47,60.95-60.74l-37.35-27.32
		C521.21,413.58,504.05,430.68,484.59,444.82z"/>
	<path id="XMLID_36_" class="st9" d="M422.54,476.88c-23.2,7.8-48.04,12.03-73.89,12.03v46.27c31.01,0,60.82-5.08,88.66-14.43"/>
	<path id="XMLID_13_" class="st9" d="M568.74,329.07c7.02-21.64,10.93-44.69,11.22-68.61l-46.26-0.54"/>
	<path id="XMLID_16_" class="st9" d="M535.41,394.18c14.34-19.59,25.68-41.51,33.33-65.11"/>
	<path id="XMLID_11_" class="st9" d="M333.86,301.41c-4.5-1.52-8.7-3.7-12.46-6.44l-27.86,36.96"/>
	<path id="XMLID_8_" class="st9" d="M348.65,350.1v-46.27c-5.17,0-10.14-0.86-14.79-2.42"/>
	<polygon id="XMLID_331_" class="st9" points="172.67,315.05 128.6,329.21 128.6,329.21 172.67,315.05 	"/>
	<g id="XMLID_48_" class="st2">
		<path id="XMLID_39_" class="st10" d="M209.96,442.8l-27.86,36.96c22.6,16.96,47.89,30.54,75.1,40.01l15.33-43.67
			C249.86,468.22,228.79,456.92,209.96,442.8z"/>
		<path id="XMLID_9_" class="st3" d="M209.96,442.8l-27.86,36.96c22.6,16.96,47.89,30.54,75.1,40.01l15.33-43.67
			C249.86,468.22,228.79,456.92,209.96,442.8z"/>
	</g>
	<path id="XMLID_10_" class="st9" d="M484.59,444.82c19.45-14.14,36.61-31.24,50.82-50.64"/>
	<path id="XMLID_26_" class="st9" d="M237.81,405.85c-30.18-22.58-53.21-54.17-65.15-90.8l-44.06,14.16"/>
	<line id="XMLID_15_" class="st9" x1="533.7" y1="259.92" x2="487.44" y2="259.38"/>
</g>
</svg>
