<?xml version="1.0" encoding="utf-8"?>
<!-- Generator: Adobe Illustrator 19.0.0, SVG Export Plug-In . SVG Version: 6.00 Build 0)  -->
<svg version="1.1" id="Layer_1" xmlns="http://www.w3.org/2000/svg" xmlns:xlink="http://www.w3.org/1999/xlink" x="0px" y="0px"
	 viewBox="-340 109.6 541.4 575.4" style="enable-background:new -340 109.6 541.4 575.4;" xml:space="preserve">
<style type="text/css">
	.st0{fill:none;stroke:#2ADDC7;stroke-miterlimit:10;}
	.st1{fill:#E14040;}
	.st2{fill:none;stroke:#E14040;stroke-miterlimit:10;}
	.st3{fill:#2ADDC7;}
</style>
<g id="XMLID_75_">
	<path id="XMLID_31_" class="st0" d="M-72.2,565c-103.7-2.1-186.1-87.9-184-191.6"/>
	<g id="XMLID_30_">
		<g id="XMLID_47_">
			<path id="XMLID_52_" class="st1" d="M-64.8,195.5c75.4,1.8,143.9,51,168.4,122.7c6.9,20.2,10.1,41.4,9.7,62.8
				c-0.2,7.7,11.8,7.9,12,0.2c0.7-40.1-10.9-80-33.7-113.2C69.5,236,38.3,211,2.2,196.8c-21.2-8.3-44-12.7-66.7-13.3
				C-72.2,183.2-72.5,195.2-64.8,195.5L-64.8,195.5z"/>
		</g>
	</g>
	<circle id="XMLID_5_" class="st2" cx="-252.8" cy="365.2" r="8.3"/>
	<circle id="XMLID_6_" class="st0" cx="119.2" cy="387.4" r="14"/>
	<circle id="XMLID_14_" class="st0" cx="-66" cy="565.1" r="6.7"/>
	<line id="XMLID_8_" class="st0" x1="-156.1" y1="642.6" x2="-142.7" y2="602.4"/>
	<circle id="XMLID_12_" class="st0" cx="-68.4" cy="378" r="16.9"/>
	<path id="XMLID_38_" class="st0" d="M-209.8,562l-28,36.7c24.4,18.7,52.1,33.4,82.1,43.2l14.5-43.9
		C-166.2,589.9-189.4,577.6-209.8,562z"/>
	<path id="XMLID_15_" class="st0" d="M-300.6,370.8c0.8-26.2,5.9-51.2,14.7-74.4l-43.4-16.2c-10.5,27.8-16.7,57.9-17.6,89.3"/>
	<path id="XMLID_7_" class="st0" d="M-346.9,369.5c0,1,0,1.9-0.1,2.9c-0.6,31,3.9,60.9,12.6,88.9l44.2-13.9
		c-7.3-23.4-11-48.2-10.5-74c0-0.8,0-1.7,0.1-2.5"/>
	<path id="XMLID_37_" class="st0" d="M195.5,294.6c-8.6-27.1-21-52.4-37-75.3l-37.9,26.4c13.2,19.1,23.7,40.1,30.8,62.7"/>
	<path id="XMLID_44_" class="st0" d="M120.6,245.9l37.9-26.4c-16.5-23.6-36.6-44.6-59.5-62.1l-28,36.8
		C90,208.6,106.8,226.1,120.6,245.9z"/>
	<path id="XMLID_36_" class="st0" d="M151.3,308.5c7.3,23.4,11,48.2,10.5,74.1l46.3,0.9c0.6-31-3.9-60.9-12.6-89"/>
	<path id="XMLID_48_" class="st0" d="M113,520.4l36.4,28.6c17.5-22.3,31.5-47.3,41.5-74.3l-43.4-16.2
		C139.2,481,127.5,501.9,113,520.4z"/>
	<g id="XMLID_22_">
		<g id="XMLID_54_">
			<path id="XMLID_58_" class="st3" d="M-211.9,269.3c23-30.1,55.4-52.3,91.7-63.2c7.3-2.2,4.5-13.8-3-11.7
				c-39.5,11.8-73.9,35.8-99,68.5C-226.8,269.2-216.5,275.4-211.9,269.3L-211.9,269.3z"/>
		</g>
	</g>
	<path id="XMLID_9_" class="st0" d="M120.6,245.9c-13.7-19.8-30.5-37.2-49.6-51.8"/>
	<path id="XMLID_19_" class="st0" d="M6.5,159.4C-15,152-38,147.6-61.9,146.8l-1.4,46.3"/>
	<path id="XMLID_16_" class="st0" d="M70.9,194c-19.3-14.7-41-26.5-64.4-34.6"/>
	<path id="XMLID_26_" class="st0" d="M76.6,491.8c-23.2,29.7-55.3,52.1-92.1,63.3l13.3,44.4"/>
	<path id="XMLID_28_" class="st0" d="M-153.6,488.4c-11.4-8.7-21.5-19.2-29.8-31.1"/>
	<path id="XMLID_78_" class="st0" d="M-28.8,510.8l13.3,44.4c36.8-11.2,68.9-33.6,92.1-63.3l-36.4-28.6
		C22.8,485.5-1.1,502.3-28.8,510.8z"/>
	<path id="XMLID_11_" class="st0" d="M-63.3,193l-1.4,46.3c14.3,0.5,28,3.1,41,7.5"/>
	<path id="XMLID_17_" class="st0" d="M23,379.9"/>
	<path id="XMLID_25_" class="st0" d="M3.8,434.6l36.4,28.6c8.6-11.1,15.7-23.6,20.7-37.1"/>
	<path id="XMLID_13_" class="st0" d="M-145.4,430.9c-5.3-7.6-9.5-16.1-12.3-25.2l-44.2,13.9c4.2,13.6,10.6,26.3,18.5,37.7"/>
	<path id="XMLID_1_" class="st0" d="M-183.4,457.3c8.3,11.9,18.3,22.3,29.8,31.1l28-36.8c-7.7-5.9-14.3-12.8-19.8-20.7"/>
	<path id="XMLID_35_" class="st0" d="M-64.8,239.3c-0.6,0-1.2,0-1.8,0c-7.9-0.2-15.6,0.4-23.2,1.4c-6.3,1-12.5,2.2-18.6,4l13.3,44.4
		c8.8-2.5,18-3.7,27.6-3.5c0.4,0,0.9,0,1.3,0"/>
	<path id="XMLID_99_" class="st0" d="M-180.1,294.2l36.8,27.9c11.9-15.7,28.7-27.4,48.1-33l-13.3-44.4
		C-137.2,253.1-162.3,270.7-180.1,294.2z"/>
	<path id="XMLID_34_" class="st0" d="M-66.3,285.5c9.5,0.3,18.7,2.1,27.2,5.1l15.2-43.7c-12.9-4.5-26.7-7-41-7.5"/>
	<line id="XMLID_10_" class="st0" x1="-23.9" y1="246.8" x2="-39.1" y2="290.6"/>
	<path id="XMLID_24_" class="st0" d="M-25.9,393.7c-1.6,4.5-3.9,8.6-6.7,12.4l36.4,28.6"/>
	<path id="XMLID_21_" class="st0" d="M23,379.9l-46.3-0.9c-0.1,5.2-1.1,10.1-2.7,14.7"/>
	<path id="XMLID_23_" class="st0" d="M-39.1,290.6"/>
	<line id="XMLID_32_" class="st0" x1="-2.2" y1="599.4" x2="-2.2" y2="599.4"/>
	<polygon id="XMLID_331_" class="st0" points="-2.2,599.5 -15.5,555.1 -15.5,555.1 	"/>
	<rect id="XMLID_332_" x="-115" y="199.4" class="st0" width="0" height="46.3"/>
	<polygon id="XMLID_333_" class="st0" points="-15.5,555.1 -28.8,510.8 -28.8,510.8 	"/>
	<polygon id="XMLID_334_" class="st0" points="-108.4,244.7 -95.1,289.1 -95.1,289.1 	"/>
	<polygon id="XMLID_337_" class="st0" points="-95.1,289 -81.8,333.4 -81.8,333.4 	"/>
</g>
</svg>
