<?xml version="1.0" encoding="utf-8"?>
<!-- Generator: Adobe Illustrator 19.0.0, SVG Export Plug-In . SVG Version: 6.00 Build 0)  -->
<svg version="1.1" id="Layer_1" xmlns="http://www.w3.org/2000/svg" xmlns:xlink="http://www.w3.org/1999/xlink" x="0px" y="0px"
	 viewBox="-249.9 326.3 694.5 141.7" style="enable-background:new -249.9 326.3 694.5 141.7;" xml:space="preserve">
<g id="XMLID_41_">
</g>
<g id="XMLID_48_">
</g>
<g id="XMLID_49_">
</g>
<g id="XMLID_50_">
</g>
<g id="XMLID_51_">
</g>
<g id="XMLID_1_">
	<path d="M-247.9,350.6h22.9l5.9,42.4l3.8,29.5h0.5c1.8-9.9,3.6-19.9,5.5-29.5l9.5-42.4h18.8l9.8,42.4c1.9,9.5,3.5,19.5,5.4,29.5
		h0.6c1.1-10,2.4-19.9,3.5-29.5l6-42.4h21.2l-16.1,93h-28.1l-8.4-40.5c-1.5-7.1-2.8-14.6-3.6-21.6h-0.6c-1.1,7-2.2,14.5-3.6,21.6
		l-8.1,40.5h-27.6L-247.9,350.6z"/>
	<path d="M-59.5,350.6h22.4V386h30.6v-35.4h22.1v93H-6.5v-38.3h-30.6v38.2h-22.4V350.6z"/>
	<path d="M99.7,350.6h59v18.5h-36.6v17.2h31.1v18.8h-31.1v19.8h38v18.8H99.7V350.6z"/>
	<path d="M241,350.6h59v18.5h-36.6v17.2h31.1v18.8h-31.1v19.8h38v18.8H241V350.6z"/>
	<path d="M382.2,350.6h22.4v74.2h36.1v18.8h-58.5V350.6z"/>
</g>
</svg>
