<svg xmlns="http://www.w3.org/2000/svg" width="193.226" height="198.346" viewBox="0 0 193.226 198.346">
  <g id="Group_107" data-name="Group 107" transform="translate(-380.142 -141.117)">
    <g id="Group_102" data-name="Group 102" transform="translate(467.426 230.92)">
      <circle id="Ellipse_7" data-name="Ellipse 7" cx="8.188" cy="8.188" r="8.188" fill="#f52a2a" stroke="#f52a2a" stroke-width="1"/>
      <circle id="Ellipse_8" data-name="Ellipse 8" cx="8.188" cy="8.188" r="8.188" fill="#f52a2a" stroke="#f52a2a" stroke-miterlimit="10" stroke-width="2"/>
      <circle id="Ellipse_9" data-name="Ellipse 9" cx="8.188" cy="8.188" r="8.188" fill="#f52a2a" stroke="#f52a2a" stroke-width="1"/>
    </g>
    <g id="Group_103" data-name="Group 103" transform="translate(381.142 142.118)">
      <path id="Path_245" data-name="Path 245" d="M481.028,142.118a5.729,5.729,0,0,0-4.938,2.827,93.558,93.558,0,0,0-92.668,88.465,6.207,6.207,0,1,0,5.186-1.275,88.461,88.461,0,0,1,87.118-82.091,5.737,5.737,0,1,0,5.3-7.926Z" transform="translate(-381.142 -142.118)" fill="#f52a2a" stroke="#f52a2a" stroke-width="1"/>
      <path id="Path_246" data-name="Path 246" d="M481.028,142.118a5.729,5.729,0,0,0-4.938,2.827,93.558,93.558,0,0,0-92.668,88.465,6.207,6.207,0,1,0,5.186-1.275,88.461,88.461,0,0,1,87.118-82.091,5.737,5.737,0,1,0,5.3-7.926Z" transform="translate(-381.142 -142.118)" fill="#f52a2a" stroke="#f52a2a" stroke-miterlimit="10" stroke-width="2"/>
      <path id="Path_247" data-name="Path 247" d="M481.028,142.118a5.729,5.729,0,0,0-4.938,2.827,93.558,93.558,0,0,0-92.668,88.465,6.207,6.207,0,1,0,5.186-1.275,88.461,88.461,0,0,1,87.118-82.091,5.737,5.737,0,1,0,5.3-7.926Z" transform="translate(-381.142 -142.118)" fill="#f52a2a" stroke="#f52a2a" stroke-width="1"/>
      <path id="Path_248" data-name="Path 248" d="M481.028,142.118a5.729,5.729,0,0,0-4.938,2.827,93.558,93.558,0,0,0-92.668,88.465,6.207,6.207,0,1,0,5.186-1.275,88.461,88.461,0,0,1,87.118-82.091,5.737,5.737,0,1,0,5.3-7.926Z" transform="translate(-381.142 -142.118)" fill="#f52a2a" stroke="#f52a2a" stroke-width="1"/>
    </g>
    <g id="Group_104" data-name="Group 104" transform="translate(462.909 159.685)">
      <path id="Path_249" data-name="Path 249" d="M592.968,272.487c-.2,35.366-22.485,68.194-55.938,80.379a87.262,87.262,0,0,1-23.522,5.014,10.543,10.543,0,1,0-.721,10.539,96.052,96.052,0,0,0,90.661-95.932C603.485,265.742,593,265.734,592.968,272.487Z" transform="translate(-493.489 -193.793)" fill="#f52a2a" stroke="#f52a2a" stroke-width="1"/>
      <path id="Path_250" data-name="Path 250" d="M579.308,176.888a84.672,84.672,0,0,1,30.165,42.086c2.233,6.926,13.2,3.964,10.948-3.018a97.637,97.637,0,0,0-35.383-48.872c-2.485-1.832-6.312-.394-7.767,2.037C575.556,171.987,576.852,175.077,579.308,176.888Z" transform="translate(-516.081 -166.255)" fill="#f52a2a" stroke="#f52a2a" stroke-width="1"/>
    </g>
    <path id="Path_251" data-name="Path 251" d="M437.423,213.724a67.465,67.465,0,0,1,14.743-14.7" transform="translate(-15.319 -15.49)" fill="#f52a2a" stroke="#f52a2a" stroke-miterlimit="10" stroke-width="2"/>
    <g id="Group_105" data-name="Group 105" transform="translate(391.176 258.866)">
      <path id="Path_252" data-name="Path 252" d="M416.253,302.529l-21.325,6.853a89.65,89.65,0,0,0,31.528,43.941l13.483-17.887A67.239,67.239,0,0,1,416.253,302.529Z" transform="translate(-394.928 -302.529)" fill="#f52a2a" stroke="#f52a2a" stroke-miterlimit="10" stroke-width="2"/>
      <path id="Path_253" data-name="Path 253" d="M416.253,302.529l-21.325,6.853a89.65,89.65,0,0,0,31.528,43.941l13.483-17.887A67.239,67.239,0,0,1,416.253,302.529Z" transform="translate(-394.928 -302.529)" fill="#f52a2a" stroke="#f52a2a" stroke-width="1"/>
    </g>
    <path id="Path_254" data-name="Path 254" d="M511.945,335.25" transform="translate(-35.604 -52.569)" fill="#f52a2a" stroke="#f52a2a" stroke-miterlimit="10" stroke-width="2"/>
    <path id="Path_255" data-name="Path 255" d="M470.232,186.2a67.28,67.28,0,0,0-32.809,24.031L455.5,223.459a44.81,44.81,0,0,1,21.879-16.016Z" transform="translate(-15.319 -12)" fill="#f52a2a" stroke="#f52a2a" stroke-miterlimit="10" stroke-width="2"/>
    <g id="Group_106" data-name="Group 106" transform="translate(502.667 183.536)">
      <path id="Path_256" data-name="Path 256" d="M588.037,242.17a66.977,66.977,0,0,0-26.752-43.144l-13.169,18.125a44.655,44.655,0,0,1,18.459,36.234c0,.21-.013.416-.015.625a44.794,44.794,0,0,1-2.17,13.216L585.7,274.15a67.173,67.173,0,0,0,3.258-19.881c0-.295.011-.589.011-.884A67.7,67.7,0,0,0,588.037,242.17Z" transform="translate(-548.116 -199.026)" fill="#f52a2a" stroke="#f52a2a" stroke-miterlimit="10" stroke-width="2"/>
      <path id="Path_257" data-name="Path 257" d="M588.037,242.17a66.977,66.977,0,0,0-26.752-43.144l-13.169,18.125a44.655,44.655,0,0,1,18.459,36.234c0,.21-.013.416-.015.625a44.794,44.794,0,0,1-2.17,13.216L585.7,274.15a67.173,67.173,0,0,0,3.258-19.881c0-.295.011-.589.011-.884A67.7,67.7,0,0,0,588.037,242.17Z" transform="translate(-548.116 -199.026)" fill="#f52a2a" stroke="#f52a2a" stroke-width="1"/>
    </g>
    <path id="Path_258" data-name="Path 258" d="M570.475,292.733" transform="translate(-51.535 -40.996)" fill="#f52a2a" stroke="#f52a2a" stroke-miterlimit="10" stroke-width="2"/>
    <path id="Path_259" data-name="Path 259" d="M416.253,302.529l-21.325,6.853h0l21.325-6.853Z" transform="translate(-3.752 -43.663)" fill="#f52a2a" stroke="#f52a2a" stroke-miterlimit="10" stroke-width="2"/>
  </g>
</svg>
